{"glyphs":{":":{"x_min":0,"x_max":287,"ha":287,"o":"m 92 107 l 195 107 l 195 0 l 92 0 z m 92 506 l 195 506 l 195 398 l 92 398 z"},"$":{"x_min":0,"x_max":574,"ha":574,"o":"m 267 623 q 225 613 202 588 q 179 562 179 527 q 179 494 201 468 q 222 443 267 423 z m 316 310 l 316 80 q 361 89 389 119 q 416 148 416 187 q 416 227 392 256 q 368 286 316 310 z m 267 785 l 316 785 l 316 697 q 355 697 395 691 q 435 685 474 673 l 463 592 q 429 608 393 617 q 356 625 316 626 l 316 404 q 418 363 464 314 q 510 265 510 198 q 510 121 458 68 q 406 15 316 2 l 316 -84 l 267 -84 l 267 0 l 257 0 q 214 0 172 8 q 131 15 91 30 l 101 119 q 140 98 182 88 q 224 77 267 77 l 267 329 q 173 364 129 410 q 86 456 86 520 q 86 591 133 637 q 180 682 267 694 z"},"?":{"x_min":0,"x_max":514,"ha":514,"o":"m 169 106 l 272 106 l 272 0 l 169 0 z m 262 186 l 181 186 q 181 190 180 196 q 180 201 180 211 q 180 246 191 275 q 202 305 229 341 q 240 355 262 382 q 333 466 333 519 q 333 567 296 598 q 259 628 199 628 q 170 628 137 620 q 105 612 68 596 l 67 678 q 105 690 142 697 q 178 703 212 703 q 310 703 367 656 q 425 609 425 531 q 425 454 320 329 q 308 314 301 306 q 282 282 272 255 q 262 228 262 198 z"},"<":{"x_min":0,"x_max":833,"ha":833,"o":"m 704 491 l 231 298 l 704 106 l 704 31 l 129 267 l 129 330 l 704 566 z"},"'":{"x_min":0,"x_max":155,"ha":155,"o":"m 112 701 l 112 430 l 44 430 l 44 701 z"},"=":{"x_min":0,"x_max":833,"ha":833,"o":"m 709 235 l 709 167 l 124 167 l 124 235 z m 709 429 l 709 361 l 124 361 l 124 429 z"},"a":{"x_min":0,"x_max":528,"ha":528,"o":"m 306 248 q 222 248 177 222 q 133 195 133 146 q 133 108 158 84 q 184 60 224 60 q 288 60 327 101 q 365 142 365 211 l 365 248 z m 455 305 l 455 0 l 372 0 l 372 84 q 343 38 300 16 q 257 -7 200 -7 q 128 -7 84 34 q 40 75 40 141 q 40 223 107 267 q 174 310 300 310 l 365 310 l 365 320 q 365 378 332 411 q 299 444 241 444 q 208 444 173 433 q 138 423 101 402 l 100 478 q 138 496 179 505 q 221 514 268 514 q 361 514 408 462 q 455 410 455 305 z"},"L":{"x_min":0,"x_max":465,"ha":465,"o":"m 86 694 l 183 694 l 183 81 l 460 81 l 460 0 l 86 0 z"},"3":{"x_min":0,"x_max":574,"ha":574,"o":"m 340 364 q 411 352 451 309 q 490 266 490 202 q 490 108 417 51 q 343 -6 220 -6 q 171 -6 128 1 q 84 8 47 21 l 58 111 q 91 93 128 83 q 165 74 205 74 q 287 74 338 112 q 389 149 389 209 q 389 263 346 293 q 304 323 227 323 l 153 323 l 153 399 l 229 399 q 300 399 343 430 q 386 460 386 511 q 386 560 344 591 q 303 622 236 622 q 201 622 163 613 q 124 604 85 588 l 80 670 q 128 685 171 692 q 214 699 255 699 q 358 699 421 650 q 483 601 483 520 q 483 462 445 421 q 407 379 340 364 z"},";":{"x_min":0,"x_max":287,"ha":287,"o":"m 105 106 l 207 106 l 125 -124 l 44 -124 z m 102 502 l 205 502 l 205 395 l 102 395 z"},"J":{"x_min":0,"x_max":358,"ha":358,"o":"m 174 694 l 272 694 l 272 233 q 272 110 228 52 q 184 -6 90 -6 q 68 -6 47 -3 q 25 -1 5 4 l 5 90 q 21 84 35 81 q 50 78 66 78 q 123 78 148 119 q 174 160 174 254 z"},"V":{"x_min":0,"x_max":632,"ha":632,"o":"m 12 694 l 115 694 l 319 93 l 530 694 l 628 694 l 372 0 l 259 0 z"},"\"":{"x_min":0,"x_max":300,"ha":300,"o":"m 256 701 l 256 430 l 188 430 l 188 701 z m 112 701 l 112 430 l 44 430 l 44 701 z"},"7":{"x_min":0,"x_max":574,"ha":574,"o":"m 56 694 l 496 694 l 496 609 l 230 0 l 123 0 l 397 617 l 56 617 z"},"S":{"x_min":0,"x_max":525,"ha":525,"o":"m 444 676 l 434 591 q 402 606 368 614 q 334 622 297 622 q 234 622 198 599 q 163 575 163 534 q 163 502 187 476 q 211 449 290 406 q 393 349 432 303 q 471 256 471 197 q 471 108 406 52 q 342 -5 240 -5 q 191 -5 146 3 q 101 11 62 26 l 72 119 q 115 97 155 86 q 195 75 233 75 q 294 75 331 103 q 368 130 368 175 q 368 245 222 328 q 198 341 185 349 q 129 381 98 428 q 66 474 66 523 q 66 604 128 652 q 189 699 296 699 q 335 699 373 693 q 410 688 444 676 z"},"}":{"x_min":0,"x_max":500,"ha":500,"o":"m 281 546 l 281 426 q 281 354 307 324 q 333 295 397 295 q 400 295 408 295 q 415 296 419 296 l 419 223 q 416 223 408 224 q 401 224 398 224 q 333 224 307 195 q 281 165 281 92 l 281 -28 q 281 -100 270 -131 q 259 -162 232 -178 q 211 -191 182 -197 q 152 -202 99 -202 l 78 -202 l 78 -130 l 97 -130 q 156 -130 176 -108 q 197 -86 197 -17 l 197 100 q 197 178 219 211 q 240 245 295 259 q 240 273 219 307 q 197 340 197 418 l 197 536 q 197 604 176 626 q 156 648 97 648 l 78 648 l 78 721 l 96 721 q 148 721 180 715 q 211 709 232 696 q 259 679 270 649 q 281 618 281 546 z"},"Z":{"x_min":0,"x_max":537,"ha":537,"o":"m 43 694 l 493 694 l 493 608 l 133 80 l 499 80 l 499 0 l 32 0 l 32 91 l 390 616 l 43 616 z"},"x":{"x_min":0,"x_max":462,"ha":462,"o":"m 24 502 l 136 502 l 243 323 l 353 502 l 456 502 l 296 268 l 469 0 l 359 0 l 236 205 l 111 0 l 7 0 l 183 265 z"},")":{"x_min":0,"x_max":323,"ha":323,"o":"m 24 755 l 97 755 q 178 639 218 528 q 258 417 258 311 q 258 205 218 95 q 178 -16 97 -132 l 24 -132 q 98 -10 132 98 q 167 206 167 311 q 167 417 132 525 q 98 633 24 755 z"},"&":{"x_min":0,"x_max":694,"ha":694,"o":"m 258 332 q 206 308 177 271 q 149 233 149 189 q 149 134 191 96 q 233 59 296 59 q 340 59 377 76 q 415 94 445 128 z m 337 367 l 500 191 q 527 229 543 276 q 558 324 561 379 l 644 379 q 641 308 619 246 q 597 185 555 132 l 677 0 l 562 0 l 497 72 q 454 30 402 9 q 349 -12 287 -12 q 183 -12 119 43 q 55 98 55 187 q 55 253 93 303 q 131 353 207 385 q 164 430 143 470 q 123 509 123 549 q 123 619 176 662 q 228 706 313 706 q 396 706 447 665 q 497 624 497 555 q 497 497 457 450 q 417 403 337 367 z m 290 418 q 350 444 381 476 q 412 509 412 546 q 412 585 384 610 q 356 635 311 635 q 267 635 239 610 q 211 585 211 546 q 211 518 228 490 q 245 461 290 418 z"},"_":{"x_min":0,"x_max":500,"ha":500,"o":"m 500 -166 l 500 -236 l 0 -236 l 0 -166 z"},"v":{"x_min":0,"x_max":477,"ha":477,"o":"m 14 502 l 114 502 l 245 83 l 382 502 l 473 502 l 295 0 l 187 0 z"},"O":{"x_min":0,"x_max":733,"ha":733,"o":"m 366 630 q 269 630 210 553 q 152 476 152 348 q 152 220 210 143 q 269 67 366 67 q 463 67 522 143 q 581 220 581 348 q 581 476 522 553 q 463 630 366 630 z m 366 707 q 512 707 596 611 q 681 514 681 347 q 681 180 597 83 q 512 -13 366 -13 q 221 -13 136 83 q 51 180 51 347 q 51 514 136 611 q 221 707 366 707 z"},"(":{"x_min":0,"x_max":323,"ha":323,"o":"m 226 755 l 299 755 q 226 634 191 526 q 156 417 156 311 q 156 206 190 98 q 225 -10 299 -132 l 226 -132 q 146 -16 106 94 q 66 204 66 311 q 66 418 106 529 q 146 640 226 755 z"},"C":{"x_min":0,"x_max":610,"ha":610,"o":"m 584 669 l 580 585 q 540 602 502 610 q 463 618 424 618 q 299 618 225 545 q 152 472 152 348 q 152 223 225 151 q 298 79 425 79 q 465 79 503 87 q 541 94 578 109 l 581 22 q 545 10 504 4 q 463 -2 417 -2 q 247 -2 148 91 q 50 183 50 343 q 50 504 150 600 q 250 696 420 696 q 465 696 507 689 q 548 683 584 669 z"},"W":{"x_min":0,"x_max":946,"ha":946,"o":"m 12 694 l 112 694 l 249 139 q 251 130 254 109 q 257 87 261 53 q 263 79 266 100 q 269 121 272 135 l 414 694 l 540 694 l 682 135 q 686 120 688 99 q 691 78 694 53 q 696 80 699 101 q 702 123 704 132 l 847 694 l 939 694 l 752 0 l 630 0 l 484 566 q 481 579 479 599 q 476 620 474 645 q 470 603 468 586 q 465 570 464 566 l 319 0 l 195 0 z"},"A":{"x_min":0,"x_max":660,"ha":660,"o":"m 338 609 l 200 256 l 471 256 z m 281 694 l 399 694 l 671 0 l 566 0 l 499 178 l 169 178 l 102 0 l 4 0 z"},"f":{"x_min":0,"x_max":353,"ha":353,"o":"m 349 748 l 346 673 q 331 678 319 681 q 307 683 298 683 q 258 683 239 657 q 220 631 220 576 l 220 502 l 337 502 l 337 431 l 220 431 l 220 0 l 128 0 l 128 431 l 23 431 l 23 502 l 128 502 l 128 581 q 128 667 168 711 q 209 756 288 756 q 302 756 318 754 q 333 752 349 748 z"},"Q":{"x_min":0,"x_max":733,"ha":733,"o":"m 500 14 l 654 -133 l 535 -133 l 409 -10 q 395 -11 386 -12 q 377 -12 370 -12 q 220 -12 135 83 q 51 179 51 347 q 51 514 136 611 q 221 707 366 707 q 512 707 596 611 q 681 514 681 347 q 681 225 636 142 q 591 59 500 14 z m 366 630 q 269 630 210 553 q 152 476 152 348 q 152 220 210 143 q 269 67 366 67 q 463 67 522 143 q 581 220 581 348 q 581 476 522 553 q 463 630 366 630 z"},"w":{"x_min":0,"x_max":811,"ha":811,"o":"m 16 502 l 116 502 l 222 121 q 223 118 226 96 q 229 74 232 55 q 237 90 239 102 q 241 115 242 118 l 355 502 l 470 502 l 582 121 q 583 117 587 99 q 590 81 593 55 q 595 79 598 94 q 600 110 603 119 l 715 502 l 806 502 l 642 0 l 536 0 l 418 398 q 416 405 413 420 q 411 435 409 458 q 407 438 404 422 q 401 405 399 396 l 281 0 l 175 0 z"},"-":{"x_min":0,"x_max":338,"ha":338,"o":"m 44 312 l 294 312 l 294 236 l 44 236 z"},"E":{"x_min":0,"x_max":535,"ha":535,"o":"m 86 694 l 462 694 l 462 619 l 183 619 l 183 399 l 447 399 l 447 321 l 183 321 l 183 80 l 471 80 l 471 0 l 86 0 z"},"s":{"x_min":0,"x_max":420,"ha":420,"o":"m 362 489 l 358 413 q 328 427 296 435 q 264 442 231 442 q 193 442 170 426 q 147 411 147 385 q 147 362 166 344 q 185 326 244 298 q 323 261 353 227 q 383 192 383 143 q 383 75 328 34 q 273 -6 179 -6 q 145 -6 112 0 q 78 7 47 19 l 50 97 q 84 80 118 72 q 152 63 183 63 q 229 63 256 83 q 283 103 283 136 q 283 161 267 179 q 251 197 192 226 q 113 265 83 298 q 54 331 54 376 q 54 435 104 471 q 154 508 237 508 q 267 508 299 503 q 330 499 362 489 z"},">":{"x_min":0,"x_max":833,"ha":833,"o":"m 704 330 l 704 267 l 129 31 l 129 106 l 603 298 l 129 491 l 129 566 z"},"l":{"x_min":0,"x_max":250,"ha":250,"o":"m 78 747 l 172 747 l 172 0 l 78 0 z"},"8":{"x_min":0,"x_max":574,"ha":574,"o":"m 294 392 q 352 423 382 460 q 412 497 412 536 q 412 580 379 608 q 346 636 295 636 q 237 636 201 606 q 164 576 164 530 q 164 487 194 455 q 224 423 294 392 z m 277 329 q 210 304 177 268 q 143 233 143 187 q 143 134 184 99 q 224 63 285 63 q 346 63 386 97 q 427 132 427 183 q 427 229 390 265 q 354 301 277 329 z m 366 364 q 447 335 486 290 q 526 245 526 181 q 526 95 459 42 q 392 -12 284 -12 q 179 -12 114 42 q 48 97 48 181 q 48 247 88 292 q 128 338 208 361 q 143 389 108 434 q 73 479 73 536 q 73 612 134 659 q 195 706 295 706 q 389 706 447 661 q 505 616 505 543 q 505 487 469 441 q 433 394 366 364 z"},"\\":{"x_min":0,"x_max":278,"ha":278,"o":"m -24 707 l 47 707 l 331 -93 l 260 -93 z"},"e":{"x_min":0,"x_max":514,"ha":514,"o":"m 490 267 l 490 229 l 135 229 q 140 148 186 104 q 232 59 311 59 q 346 59 380 68 q 414 77 450 96 l 450 16 q 417 2 378 -5 q 338 -12 291 -12 q 177 -12 111 60 q 45 132 45 256 q 45 372 110 443 q 174 514 279 514 q 377 514 434 448 q 490 382 490 267 z m 403 291 q 398 366 364 406 q 331 447 274 447 q 218 447 181 405 q 145 363 137 291 z"},"b":{"x_min":0,"x_max":596,"ha":596,"o":"m 319 442 q 252 442 214 392 q 175 341 175 254 q 175 169 214 118 q 252 67 316 67 q 377 67 414 116 q 450 166 450 251 q 450 339 415 390 q 379 442 319 442 z m 82 747 l 175 747 l 175 422 q 203 468 244 490 q 286 513 342 513 q 435 513 491 444 q 548 374 548 259 q 548 140 490 66 q 433 -8 342 -8 q 285 -8 240 20 q 196 48 167 102 l 167 0 l 82 0 z"},"%":{"x_min":0,"x_max":868,"ha":868,"o":"m 675 304 q 637 304 615 270 q 593 235 593 176 q 593 117 615 82 q 637 48 675 48 q 713 48 736 82 q 758 116 758 176 q 758 236 736 270 q 713 304 675 304 z m 675 363 q 749 363 792 312 q 836 262 836 175 q 836 89 792 38 q 749 -13 675 -13 q 601 -13 557 38 q 513 89 513 175 q 513 261 557 312 q 601 363 675 363 z m 200 648 q 162 648 140 614 q 117 579 117 520 q 117 460 139 426 q 162 392 200 392 q 238 392 260 426 q 282 460 282 520 q 282 581 260 614 q 239 648 200 648 z m 588 707 l 655 707 l 287 -13 l 219 -13 z m 199 707 q 273 707 317 656 q 361 605 361 519 q 361 434 317 382 q 272 331 199 331 q 125 331 81 382 q 37 433 37 519 q 37 605 81 656 q 125 707 199 707 z"},"m":{"x_min":0,"x_max":884,"ha":884,"o":"m 482 404 q 510 458 553 485 q 596 513 652 513 q 730 513 772 459 q 813 406 813 303 l 813 0 l 720 0 l 720 282 q 720 358 696 395 q 672 431 623 431 q 562 431 528 385 q 494 338 494 256 l 494 0 l 401 0 l 401 282 q 401 361 377 396 q 353 431 300 431 q 244 431 209 384 q 175 336 175 256 l 175 0 l 83 0 l 83 502 l 168 502 l 168 409 q 195 460 237 487 q 280 513 334 513 q 387 513 425 485 q 462 457 482 404 z"},"#":{"x_min":0,"x_max":769,"ha":769,"o":"m 473 419 l 346 419 l 301 290 l 428 290 z m 451 712 l 372 490 l 497 490 l 577 712 l 657 712 l 579 490 l 726 490 l 701 419 l 553 419 l 508 291 l 665 291 l 640 219 l 483 219 l 404 -2 l 323 -2 l 402 219 l 276 219 l 197 -2 l 116 -2 l 194 219 l 43 219 l 69 291 l 220 291 l 265 419 l 104 419 l 129 490 l 291 490 l 370 712 z"},",":{"x_min":0,"x_max":287,"ha":287,"o":"m 110 106 l 211 106 l 129 -124 l 48 -124 z"},"n":{"x_min":0,"x_max":587,"ha":587,"o":"m 515 303 l 515 0 l 422 0 l 422 282 q 422 359 395 397 q 367 434 310 434 q 248 434 212 387 q 176 340 176 256 l 176 0 l 83 0 l 83 502 l 168 502 l 168 409 q 196 461 240 488 q 284 514 343 514 q 428 514 471 460 q 515 407 515 303 z"},"h":{"x_min":0,"x_max":587,"ha":587,"o":"m 83 747 l 176 747 l 176 421 q 202 467 244 491 q 286 514 343 514 q 428 514 471 460 q 515 407 515 303 l 515 0 l 422 0 l 422 282 q 422 359 395 397 q 367 434 310 434 q 248 434 212 387 q 176 340 176 256 l 176 0 l 83 0 z"},"z":{"x_min":0,"x_max":469,"ha":469,"o":"m 49 502 l 426 502 l 426 424 l 139 73 l 426 73 l 426 0 l 37 0 l 37 80 l 320 429 l 49 429 z"},"B":{"x_min":0,"x_max":575,"ha":575,"o":"m 182 322 l 182 79 l 256 79 q 340 79 384 110 q 427 142 427 202 q 427 261 387 292 q 347 322 268 322 z m 182 618 l 182 397 l 253 397 q 328 397 368 426 q 408 456 408 510 q 408 562 371 590 q 333 618 262 618 z m 86 694 l 272 694 q 385 694 446 648 q 508 602 508 519 q 508 461 475 422 q 442 382 380 365 q 452 348 490 304 q 528 260 528 194 q 528 102 461 51 q 395 0 273 0 l 86 0 z"},"K":{"x_min":0,"x_max":590,"ha":590,"o":"m 86 694 l 183 694 l 183 389 l 470 694 l 587 694 l 275 370 l 613 0 l 488 0 l 183 339 l 183 0 l 86 0 z"},"R":{"x_min":0,"x_max":571,"ha":571,"o":"m 182 619 l 182 383 l 257 383 q 330 383 371 415 q 412 447 412 503 q 412 563 374 591 q 335 619 254 619 z m 86 694 l 273 694 q 392 694 451 649 q 511 604 511 516 q 511 450 472 406 q 433 363 360 347 q 391 339 411 319 q 430 299 451 249 l 556 0 l 452 0 l 361 227 q 343 271 315 289 q 288 307 238 307 l 182 307 l 182 0 l 86 0 z"},"T":{"x_min":0,"x_max":504,"ha":504,"o":"m 9 694 l 495 694 l 495 613 l 301 613 l 301 0 l 203 0 l 203 613 l 9 613 z"},"P":{"x_min":0,"x_max":530,"ha":530,"o":"m 183 618 l 183 359 l 246 359 q 323 359 365 393 q 406 427 406 491 q 406 551 368 585 q 330 618 260 618 z m 86 694 l 259 694 q 383 694 445 643 q 507 591 507 489 q 507 391 441 337 q 375 283 254 283 l 183 283 l 183 0 l 86 0 z"},"|":{"x_min":0,"x_max":500,"ha":500,"o":"m 287 764 l 287 -236 l 214 -236 l 214 764 z"},"t":{"x_min":0,"x_max":366,"ha":366,"o":"m 216 657 l 216 502 l 336 502 l 336 431 l 216 431 l 216 171 q 216 112 233 88 q 250 63 289 63 q 299 63 312 66 q 324 68 340 74 l 341 1 q 322 -4 303 -6 q 285 -9 265 -9 q 189 -9 156 31 q 123 70 123 162 l 123 431 l 22 431 l 22 502 l 126 502 l 126 626 z"},"M":{"x_min":0,"x_max":915,"ha":915,"o":"m 86 694 l 233 694 l 438 156 q 445 136 449 114 q 454 92 455 67 q 458 99 463 123 q 467 146 471 157 l 684 694 l 829 694 l 829 0 l 735 0 l 735 545 q 735 570 737 597 q 739 624 743 653 q 737 625 729 601 q 722 577 714 557 l 494 0 l 408 0 l 189 566 q 184 579 178 600 q 172 622 166 651 q 169 604 170 577 q 172 550 172 543 l 172 0 l 86 0 z"},"g":{"x_min":0,"x_max":592,"ha":592,"o":"m 280 441 q 219 441 183 392 q 147 342 147 258 q 147 174 184 125 q 220 75 281 75 q 343 75 382 125 q 421 174 421 255 q 421 342 383 392 q 346 441 280 441 z m 430 412 l 430 502 l 515 502 l 515 57 q 515 -81 452 -150 q 390 -219 265 -219 q 221 -219 178 -211 q 135 -203 97 -188 l 104 -104 q 144 -125 181 -135 q 218 -145 251 -145 q 334 -145 380 -96 q 426 -48 426 41 l 426 101 q 396 51 353 25 q 311 0 258 0 q 165 0 107 70 q 49 139 49 253 q 49 373 106 443 q 164 514 259 514 q 316 514 359 489 q 402 463 430 412 z"},"j":{"x_min":0,"x_max":250,"ha":250,"o":"m 78 502 l 172 502 l 172 -24 q 172 -126 138 -172 q 105 -217 30 -217 q 15 -217 0 -215 q -16 -213 -31 -210 l -26 -140 q -16 -143 -7 -144 q 2 -145 10 -145 q 47 -145 63 -118 q 78 -90 78 -19 z m 78 733 l 172 733 l 172 639 l 78 639 z"},"i":{"x_min":0,"x_max":250,"ha":250,"o":"m 78 502 l 172 502 l 172 0 l 78 0 z m 78 733 l 172 733 l 172 639 l 78 639 z"},"y":{"x_min":0,"x_max":476,"ha":476,"o":"m 12 502 l 112 502 l 248 90 l 383 502 l 477 502 l 278 -51 q 246 -143 205 -180 q 164 -218 100 -218 q 85 -218 70 -216 q 55 -214 39 -211 l 47 -134 q 59 -137 70 -139 q 81 -140 91 -140 q 125 -140 151 -112 q 176 -84 201 -19 z"},"@":{"x_min":0,"x_max":1000,"ha":1000,"o":"m 627 417 l 655 473 l 719 473 l 648 192 q 646 184 645 177 q 644 169 644 163 q 644 141 656 129 q 669 117 693 117 q 716 117 743 130 q 770 143 795 167 q 834 204 856 258 q 878 312 878 372 q 878 499 785 577 q 692 656 541 656 q 476 656 421 642 q 366 628 318 600 q 225 544 173 454 q 122 363 122 254 q 122 167 152 104 q 182 40 246 -9 q 295 -46 362 -67 q 428 -87 502 -87 q 584 -87 662 -63 q 740 -39 805 6 l 832 -34 q 760 -88 678 -116 q 597 -143 508 -143 q 415 -143 338 -120 q 261 -97 201 -52 q 126 6 89 82 q 52 158 52 255 q 52 335 77 408 q 103 480 151 539 q 222 626 323 671 q 423 716 545 716 q 625 716 696 694 q 768 672 820 632 q 883 583 916 519 q 949 455 949 381 q 949 295 918 227 q 887 159 828 112 q 795 85 755 71 q 715 57 674 57 q 625 57 601 76 q 576 96 576 134 l 576 143 q 549 100 513 79 q 477 58 429 58 q 354 58 315 100 q 276 141 276 220 q 276 335 343 413 q 411 490 509 490 q 550 490 580 472 q 609 454 627 417 z m 581 232 l 610 347 q 602 390 576 414 q 551 437 513 437 q 446 437 400 374 q 354 310 354 218 q 354 167 378 139 q 401 111 445 111 q 492 111 530 145 q 568 178 581 232 z"},".":{"x_min":0,"x_max":287,"ha":287,"o":"m 92 107 l 195 107 l 195 0 l 92 0 z"},"p":{"x_min":0,"x_max":596,"ha":596,"o":"m 176 81 l 176 -209 l 83 -209 l 83 502 l 167 502 l 167 405 q 196 458 242 486 q 287 514 344 514 q 437 514 494 445 q 551 375 551 261 q 551 138 493 65 q 436 -8 340 -8 q 287 -8 245 15 q 204 37 176 81 z m 453 255 q 453 341 417 390 q 381 439 319 439 q 254 439 215 388 q 176 338 176 254 q 176 167 214 116 q 251 65 315 65 q 378 65 416 116 q 453 167 453 255 z"},"X":{"x_min":0,"x_max":631,"ha":631,"o":"m 32 694 l 148 694 l 322 421 l 494 694 l 601 694 l 375 364 l 623 0 l 507 0 l 312 304 l 115 0 l 7 0 l 258 363 z"},"*":{"x_min":0,"x_max":500,"ha":500,"o":"m 210 741 l 290 741 l 271 577 l 419 649 l 445 567 l 284 537 l 398 418 l 328 366 l 250 512 l 172 366 l 101 418 l 216 537 l 54 567 l 81 649 l 229 577 z"},"Y":{"x_min":0,"x_max":576,"ha":576,"o":"m -16 694 l 98 694 l 290 365 l 486 694 l 592 694 l 336 287 l 336 0 l 238 0 l 238 285 z"},"c":{"x_min":0,"x_max":465,"ha":465,"o":"m 432 485 l 425 405 q 402 417 374 424 q 347 431 317 431 q 239 431 191 382 q 143 332 143 252 q 143 170 190 120 q 236 71 314 71 q 342 71 371 78 q 399 85 429 99 l 434 17 q 403 5 369 0 q 335 -6 300 -6 q 185 -6 115 64 q 45 134 45 250 q 45 365 117 436 q 189 506 307 506 q 342 506 373 501 q 404 496 432 485 z"},"!":{"x_min":0,"x_max":401,"ha":401,"o":"m 148 106 l 254 106 l 254 0 l 148 0 z m 148 694 l 254 694 l 237 189 l 165 189 z"},"/":{"x_min":0,"x_max":278,"ha":278,"o":"m 231 707 l 302 707 l 17 -93 l -53 -93 z"},"[":{"x_min":0,"x_max":326,"ha":326,"o":"m 92 754 l 268 754 l 268 691 l 171 691 l 171 -70 l 268 -70 l 268 -132 l 92 -132 z"},"6":{"x_min":0,"x_max":574,"ha":574,"o":"m 299 365 q 242 365 205 322 q 168 279 168 211 q 168 146 206 104 q 243 63 302 63 q 360 63 398 105 q 435 146 435 212 q 435 282 398 324 q 361 365 299 365 z m 503 681 l 496 600 q 469 614 438 621 q 408 628 374 628 q 270 628 213 556 q 157 484 155 350 q 182 394 225 417 q 268 440 321 440 q 413 440 471 380 q 530 320 530 226 q 530 122 466 55 q 403 -12 304 -12 q 188 -12 125 72 q 63 156 63 314 q 63 500 141 602 q 220 703 363 703 q 397 703 433 698 q 468 692 503 681 z"},"r":{"x_min":0,"x_max":361,"ha":361,"o":"m 351 508 l 348 419 q 337 422 328 424 q 318 425 309 425 q 245 425 210 380 q 176 335 176 252 l 176 0 l 83 0 l 83 502 l 167 502 l 167 399 q 188 454 225 482 q 263 511 312 511 q 320 511 330 510 q 340 509 351 508 z"},"2":{"x_min":0,"x_max":574,"ha":574,"o":"m 175 79 l 492 79 l 492 0 l 59 0 l 59 81 q 247 268 311 358 q 376 449 376 512 q 376 561 340 591 q 304 622 247 622 q 208 622 169 609 q 129 597 92 572 l 81 661 q 130 683 178 694 q 226 705 275 705 q 362 705 417 653 q 472 600 472 517 q 472 438 407 340 q 342 243 175 79 z"},"{":{"x_min":0,"x_max":500,"ha":500,"o":"m 423 648 l 403 648 q 344 648 324 626 q 304 604 304 536 l 304 418 q 304 340 282 307 q 261 273 206 259 q 261 245 283 212 q 304 179 304 100 l 304 -18 q 304 -87 324 -108 q 345 -130 404 -130 l 423 -130 l 423 -202 l 402 -202 q 349 -202 319 -197 q 290 -191 269 -178 q 242 -162 231 -131 q 220 -100 220 -28 l 220 92 q 220 165 194 194 q 167 224 103 224 q 100 224 93 224 q 85 223 82 223 l 82 296 q 86 296 93 295 q 101 295 104 295 q 167 295 194 324 q 220 354 220 426 l 220 546 q 220 618 231 649 q 242 679 269 696 q 291 709 322 715 q 353 721 405 721 l 423 721 z"},"9":{"x_min":0,"x_max":574,"ha":574,"o":"m 419 486 q 419 551 382 591 q 346 632 288 632 q 229 632 190 588 q 152 543 152 475 q 152 411 189 371 q 226 330 284 330 q 345 330 382 372 q 419 415 419 486 z m 84 14 l 91 95 q 118 81 149 74 q 179 67 213 67 q 317 67 373 138 q 430 209 432 344 q 405 300 362 277 q 319 254 266 254 q 174 254 116 314 q 57 374 57 468 q 57 572 121 639 q 185 707 283 707 q 399 707 462 623 q 524 538 524 379 q 524 194 445 93 q 367 -8 223 -8 q 188 -8 154 -2 q 119 3 84 14 z"}," ":{"x_min":0,"x_max":287,"ha":287,"o":""},"I":{"x_min":0,"x_max":269,"ha":269,"o":"m 86 694 l 183 694 l 183 0 l 86 0 z"},"H":{"x_min":0,"x_max":681,"ha":681,"o":"m 86 694 l 183 694 l 183 400 l 498 400 l 498 694 l 595 694 l 595 0 l 498 0 l 498 321 l 183 321 l 183 0 l 86 0 z"},"4":{"x_min":0,"x_max":574,"ha":574,"o":"m 358 609 l 107 232 l 356 232 z m 330 694 l 447 694 l 447 232 l 548 232 l 548 156 l 447 156 l 447 0 l 356 0 l 356 156 l 27 156 l 27 245 z"},"~":{"x_min":0,"x_max":833,"ha":833,"o":"m 747 300 q 696 265 650 248 q 604 231 557 231 q 512 231 432 259 q 421 263 416 265 l 408 268 q 322 297 275 297 q 234 297 189 279 q 145 261 87 220 l 87 296 q 139 331 186 349 q 232 366 276 366 q 306 366 338 360 q 370 353 418 336 q 426 333 441 328 q 519 300 558 300 q 601 300 646 318 q 690 336 747 376 z"},"D":{"x_min":0,"x_max":686,"ha":686,"o":"m 183 616 l 183 81 l 262 81 q 392 81 465 152 q 537 222 537 350 q 537 480 468 548 q 398 616 263 616 z m 86 694 l 248 694 q 443 694 541 606 q 639 519 639 345 q 639 179 537 90 q 435 0 246 0 l 86 0 z"},"^":{"x_min":0,"x_max":1000,"ha":1000,"o":"m 545 712 l 794 440 l 706 440 l 500 645 l 293 440 l 205 440 l 454 712 z"},"0":{"x_min":0,"x_max":574,"ha":574,"o":"m 287 634 q 219 634 184 561 q 149 488 149 348 q 149 209 185 136 q 220 63 288 63 q 354 63 390 136 q 425 208 425 346 q 425 487 390 561 q 355 634 287 634 z m 287 707 q 402 707 462 615 q 523 523 523 347 q 523 172 462 79 q 402 -13 287 -13 q 172 -13 111 79 q 51 171 51 347 q 51 522 111 615 q 172 707 287 707 z"},"F":{"x_min":0,"x_max":477,"ha":477,"o":"m 86 694 l 445 694 l 445 618 l 183 618 l 183 396 l 434 396 l 434 318 l 183 318 l 183 0 l 86 0 z"},"`":{"x_min":0,"x_max":500,"ha":500,"o":"m 126 742 l 218 742 l 318 569 l 265 569 z"},"k":{"x_min":0,"x_max":502,"ha":502,"o":"m 83 747 l 176 747 l 176 303 l 374 502 l 483 502 l 260 288 l 511 0 l 394 0 l 176 263 l 176 0 l 83 0 z"},"u":{"x_min":0,"x_max":587,"ha":587,"o":"m 72 502 l 165 502 l 165 224 q 165 146 192 110 q 219 73 276 73 q 341 73 376 124 q 410 174 410 270 l 410 502 l 503 502 l 503 0 l 418 0 l 418 97 q 390 44 347 19 q 304 -7 244 -7 q 159 -7 115 46 q 72 100 72 203 z"},"]":{"x_min":0,"x_max":326,"ha":326,"o":"m 57 754 l 234 754 l 234 -132 l 57 -132 l 57 -70 l 155 -70 l 155 691 l 57 691 z"},"U":{"x_min":0,"x_max":690,"ha":690,"o":"m 80 694 l 177 694 l 177 285 q 177 174 217 120 q 258 67 341 67 q 425 67 467 124 q 510 182 510 294 l 510 694 l 600 694 l 600 292 q 600 140 535 63 q 469 -13 338 -13 q 211 -13 146 62 q 80 136 80 282 z"},"o":{"x_min":0,"x_max":587,"ha":587,"o":"m 294 443 q 227 443 186 390 q 144 338 144 252 q 144 167 186 115 q 227 62 294 62 q 362 62 403 114 q 444 166 444 252 q 444 339 403 391 q 362 443 294 443 z m 293 514 q 409 514 475 444 q 542 373 542 251 q 542 130 475 59 q 408 -12 293 -12 q 178 -12 112 59 q 45 129 45 251 q 45 373 112 444 q 178 514 293 514 z"},"N":{"x_min":0,"x_max":705,"ha":705,"o":"m 86 694 l 208 694 l 510 154 q 516 142 525 118 q 534 94 544 61 q 538 99 534 130 q 531 160 531 182 l 531 694 l 620 694 l 620 0 l 501 0 l 194 545 q 188 555 180 578 q 171 601 161 638 q 168 583 172 552 q 175 522 175 509 l 175 0 l 86 0 z"},"+":{"x_min":0,"x_max":833,"ha":833,"o":"m 451 596 l 451 332 l 709 332 l 709 264 l 451 264 l 451 0 l 382 0 l 382 264 l 124 264 l 124 332 l 382 332 l 382 596 z"},"G":{"x_min":0,"x_max":711,"ha":711,"o":"m 617 663 l 603 581 q 563 601 520 611 q 477 621 431 621 q 306 621 230 545 q 155 469 155 344 q 155 221 230 148 q 306 74 432 74 q 461 74 488 79 q 516 84 542 94 l 542 305 l 397 305 l 397 381 l 636 381 l 636 33 q 588 15 535 6 q 482 -3 424 -3 q 253 -3 153 91 q 53 185 53 346 q 53 506 154 602 q 255 697 426 697 q 474 697 522 688 q 570 680 617 663 z"},"q":{"x_min":0,"x_max":596,"ha":596,"o":"m 272 439 q 214 439 179 389 q 143 339 143 256 q 143 167 180 116 q 217 65 281 65 q 344 65 382 116 q 419 167 419 253 q 419 340 380 389 q 340 439 272 439 z m 428 405 l 428 502 l 513 502 l 513 -209 l 420 -209 l 420 81 q 392 38 350 15 q 307 -8 254 -8 q 159 -8 102 65 q 45 139 45 263 q 45 376 102 445 q 160 514 253 514 q 309 514 354 486 q 399 458 428 405 z"},"d":{"x_min":0,"x_max":596,"ha":596,"o":"m 277 442 q 217 442 181 391 q 145 340 145 253 q 145 167 181 117 q 218 67 279 67 q 342 67 381 118 q 420 168 420 253 q 420 341 382 392 q 343 442 277 442 z m 420 747 l 513 747 l 513 0 l 428 0 l 428 102 q 399 47 355 20 q 311 -8 252 -8 q 163 -8 105 67 q 47 142 47 259 q 47 375 104 444 q 161 514 254 514 q 308 514 350 491 q 392 468 420 422 z"},"1":{"x_min":0,"x_max":574,"ha":574,"o":"m 279 694 l 359 694 l 359 0 l 268 0 l 268 590 l 153 491 l 103 554 z"},"5":{"x_min":0,"x_max":574,"ha":574,"o":"m 99 694 l 481 694 l 481 620 l 189 620 l 185 428 q 210 433 233 436 q 256 438 279 438 q 386 438 448 381 q 510 324 510 226 q 510 118 436 55 q 361 -8 234 -8 q 198 -8 160 -1 q 123 6 86 19 l 85 109 q 116 91 154 81 q 192 72 235 72 q 315 72 363 114 q 411 155 411 224 q 411 288 365 326 q 320 364 243 364 q 213 364 175 358 q 137 353 93 342 z"}}}
